<svg width="28" height="26" viewBox="0 0 28 26" fill="white" xmlns="http://www.w3.org/2000/svg">
<path d="M14 0C17.7992 0 18.277 0.01625 19.7697 0.078C21.2625 0.143 22.2793 0.36075 23.17 0.6825C24.1043 1.00883 24.9506 1.52072 25.6497 2.18238C26.3619 2.83188 26.9131 3.61764 27.265 4.485C27.6115 5.3105 27.8477 6.25625 27.916 7.6375C27.9825 9.02687 28 9.46888 28 13.0016C28 16.5311 27.9825 16.9731 27.916 18.3593C27.846 19.7437 27.6115 20.6879 27.265 21.515C26.9062 22.3697 26.4285 23.0945 25.6497 23.8176C24.8727 24.5407 24.0922 24.986 23.1718 25.3175C22.2793 25.6392 21.2642 25.8586 19.7732 25.922C18.2787 25.9837 17.8028 26 14 26C10.1973 26 9.723 25.9837 8.2285 25.922C6.73925 25.857 5.719 25.6392 4.82825 25.3175C3.89451 24.991 3.04882 24.4791 2.35025 23.8176C1.5715 23.0945 1.09375 22.3697 0.735001 21.515C0.390249 20.6879 0.154001 19.7437 0.0839996 18.3593C0.0174999 16.9731 0 16.5311 0 13C0 9.46887 0.0174999 9.02688 0.0839996 7.63913C0.154001 6.25625 0.390249 5.3105 0.735001 4.485C1.08689 3.61762 1.63809 2.83185 2.35025 2.18238C3.04914 1.52047 3.89551 1.00855 4.83 0.6825C5.7225 0.36075 6.741 0.141375 8.23025 0.078C9.72475 0.01625 10.199 0 14.0035 0H13.9982H14ZM15.2548 2.34325H13.9982C10.2603 2.34325 9.8175 2.35462 8.34225 2.418C6.97725 2.47487 6.23525 2.68775 5.74175 2.86488C5.089 3.1005 4.62175 3.38325 4.13175 3.83825C3.64175 4.29325 3.339 4.7255 3.08525 5.33325C2.89275 5.78988 2.66525 6.47888 2.604 7.74638C2.53575 9.11625 2.52175 9.52738 2.52175 12.9967C2.52175 16.4661 2.53575 16.8789 2.604 18.2487C2.66525 19.5162 2.8945 20.2036 3.08525 20.6619C3.3097 21.2263 3.66795 21.7367 4.1335 22.1553C4.6235 22.6103 5.089 22.8914 5.7435 23.127C6.2335 23.3057 6.9755 23.517 8.34225 23.5755C9.8175 23.6373 10.2603 23.6519 13.9982 23.6519C17.7362 23.6519 18.1807 23.6373 19.656 23.5755C21.021 23.517 21.7613 23.3057 22.2548 23.127C22.8629 22.9189 23.413 22.5868 23.8647 22.1553C24.3307 21.7361 24.6895 21.2252 24.9148 20.6602C25.1055 20.2036 25.3347 19.5146 25.396 18.2471C25.4625 16.8773 25.4765 16.4661 25.4765 12.9935C25.4765 9.5225 25.4625 9.113 25.396 7.74312C25.333 6.47563 25.1055 5.78662 24.913 5.32837C24.6593 4.72225 24.3548 4.28837 23.8647 3.83337C23.3748 3.37838 22.9093 3.09725 22.2548 2.86162C21.7613 2.68288 21.021 2.47163 19.656 2.41313C18.3645 2.35788 17.864 2.34162 15.2548 2.34V2.34325ZM6.52575 4.50125C6.74637 4.50125 6.96483 4.5416 7.16866 4.62C7.37249 4.6984 7.55769 4.8133 7.71369 4.95816C7.86969 5.10302 7.99344 5.275 8.07787 5.46426C8.1623 5.65353 8.20575 5.85639 8.20575 6.06125C8.20575 6.26611 8.1623 6.46897 8.07787 6.65824C7.99344 6.8475 7.86969 7.01948 7.71369 7.16434C7.55769 7.3092 7.37249 7.4241 7.16866 7.5025C6.96483 7.5809 6.74637 7.62125 6.52575 7.62125C6.08019 7.62125 5.65287 7.45689 5.33781 7.16434C5.02275 6.87178 4.84575 6.47499 4.84575 6.06125C4.84575 5.64751 5.02275 5.25072 5.33781 4.95816C5.65287 4.66561 6.08019 4.50125 6.52575 4.50125ZM13.9982 6.3245C14.9519 6.31068 15.8989 6.47316 16.7843 6.80248C17.6696 7.13179 18.4756 7.62137 19.1552 8.24269C19.8349 8.86401 20.3746 9.60467 20.743 10.4215C21.1114 11.2384 21.3012 12.1152 21.3012 13.0008C21.3012 13.8864 21.1114 14.7632 20.743 15.5801C20.3746 16.397 19.8349 17.1376 19.1552 17.7589C18.4756 18.3803 17.6696 18.8698 16.7843 19.1991C15.8989 19.5285 14.9519 19.6909 13.9982 19.6771C12.1108 19.6498 10.3106 18.9344 8.98629 17.6853C7.66195 16.4362 6.91967 14.7537 6.91967 13.0008C6.91967 11.248 7.66195 9.56542 8.98629 8.31634C10.3106 7.06727 12.1108 6.35184 13.9982 6.3245ZM13.9982 8.66613C12.7604 8.66613 11.5733 9.12273 10.698 9.93549C9.82273 10.7482 9.331 11.8506 9.331 13C9.331 14.1494 9.82273 15.2518 10.698 16.0645C11.5733 16.8773 12.7604 17.3339 13.9982 17.3339C15.2361 17.3339 16.4232 16.8773 17.2985 16.0645C18.1738 15.2518 18.6655 14.1494 18.6655 13C18.6655 11.8506 18.1738 10.7482 17.2985 9.93549C16.4232 9.12273 15.2361 8.66613 13.9982 8.66613Z" fill="#000000"/>
</svg>
