<svg width="17" height="27" viewBox="0 0 17 27" fill="white" xmlns="http://www.w3.org/2000/svg">
<path d="M5.076 27C4.812 27 4.584 26.916 4.392 26.748C4.224 26.556 4.14 26.328 4.14 26.064V13.788H1.512C1.248 13.788 1.02 13.704 0.828 13.536C0.66 13.344 0.576 13.116 0.576 12.852V9.216C0.576 8.952 0.66 8.736 0.828 8.568C1.02 8.376 1.248 8.28 1.512 8.28H4.14V7.416C4.14 5.592 4.5 4.176 5.22 3.168C5.964 2.136 6.984 1.416 8.28 1.008C9.576 0.575999 11.064 0.36 12.744 0.36H15.804C16.068 0.36 16.296 0.455999 16.488 0.647998C16.68 0.815999 16.776 1.032 16.776 1.296V4.932C16.776 5.196 16.68 5.424 16.488 5.616C16.296 5.784 16.068 5.868 15.804 5.868H13.104C12.432 5.868 11.952 6.024 11.664 6.336C11.376 6.624 11.232 7.044 11.232 7.596V8.28H15.444C15.708 8.28 15.936 8.376 16.128 8.568C16.32 8.736 16.416 8.952 16.416 9.216V12.852C16.416 13.116 16.32 13.344 16.128 13.536C15.936 13.704 15.708 13.788 15.444 13.788H11.232V26.064C11.232 26.328 11.136 26.556 10.944 26.748C10.776 26.916 10.56 27 10.296 27H5.076Z" fill="#bdbdbd"/>
</svg>
