<svg width="34" height="30" viewBox="0 0 34 30" fill="none" xmlns="http://www.w3.org/2000/svg">
<path fill-rule="evenodd" clip-rule="evenodd" d="M17.4786 0.670683L32.9994 14.3865L32.9891 14.3957C33.1586 14.5706 33.2472 14.7956 33.2371 15.0257C33.2271 15.2559 33.1191 15.4742 32.9348 15.637C32.7506 15.7999 32.5035 15.8953 32.2431 15.9042C31.9827 15.913 31.7281 15.8348 31.5301 15.685L16.7439 2.60919L1.95776 15.6758C1.75982 15.8256 1.5052 15.9039 1.24479 15.895C0.984371 15.8861 0.737342 15.7907 0.553064 15.6279C0.368785 15.465 0.26083 15.2467 0.250772 15.0166C0.240713 14.7865 0.329291 14.5615 0.498806 14.3865L16.0196 0.670683C16.2135 0.500377 16.4758 0.404785 16.7491 0.404785C17.0225 0.404785 17.2847 0.500377 17.4786 0.670683ZM21.9175 27.8375H27.0912V14.8161L29.1606 16.6449V27.8375C29.1606 28.3225 28.9426 28.7877 28.5545 29.1307C28.1664 29.4737 27.64 29.6663 27.0912 29.6663H19.8481V20.5221H13.6398V29.6663H6.39672C5.84786 29.6663 5.32149 29.4737 4.9334 29.1307C4.5453 28.7877 4.32727 28.3225 4.32727 27.8375V16.8644L6.39672 15.0355V27.8375H11.5703V18.6932H21.9175V27.8375Z" fill="white"/>
</svg>
